<svg width="1920" height="1947" viewBox="0 0 1920 1947" fill="none" xmlns="http://www.w3.org/2000/svg">
<path d="M0 9H1920V1703.51L1861 1708.99L1800.5 1698.94L1769.5 1687.53L1739.5 1670.64L1713 1661.51L1681 1657.86L1448 1652.61L1321 1637.32L1200.5 1601.71L1144 1589.38L1088.5 1585.28L1029.5 1589.38L976 1601.71L853 1619.51L710.5 1640.97L464.5 1677.94L238 1769.7L0 1840V9Z" fill="#D9D9D9" fill-opacity="0.5"/>
<path d="M0 0H1920V1651.01L1856 1723L1822.5 1739.99L1806 1758.49L1798 1767.49L1793.5 1770.5L1791 1771.5L1788.33 1771.74H1785.8L1783 1771.24L1780.5 1770.5L1778 1769.5L1767.5 1766L1744.5 1758.5L1706 1742L1623 1687.5L1544.5 1631.5L1501.5 1600L1465.5 1583L1431.5 1581L1401.5 1586L1343.5 1606L1285 1619L1223.5 1624L1102 1613L987 1594.84L751 1560L631 1541.19L570.5 1535.5L514 1541.19L443 1576.5L372.5 1627.5L250.5 1735.5L0 1947V0Z" fill="#CCD0CF" fill-opacity="0.35"/>
</svg>
