<svg width="1920" height="1244" viewBox="0 0 1920 1244" fill="none" xmlns="http://www.w3.org/2000/svg">
<path d="M-5 70.4075L230 115.451L590.5 71.7199L994 96.8848L1585.5 0L1731.5 35.6502L1920 46.9744V1215.59L1644.5 1218.54L1430.5 1186.45L1191 1222.97L733 1172.06L77 1244L0 1223.34L-5 70.4075Z" fill="#737BA5"/>
<path d="M0 105.524L235 146.803L595.5 113.54L962 125.563L1590.5 41L1752.5 80.2755L1920 95.1041V1192.92L1590 1175L1405 1146.84L1193 1175L732.5 1146.84L484.5 1175L217.5 1206.45L72.5 1224L0 1195.11V105.524Z" fill="#515A82"/>
<path d="M0 154.529L237.5 182.228L598.5 152.876L1005.5 177.092L1603 85L1757 136.733L1920 159.847V1166.99L1588.5 1130.3L1397.5 1088.84L1189.5 1130.3L724.5 1102.78L439 1152.68L93 1189L0 1166.99V154.529Z" fill="#353D60"/>
</svg>
