<svg width="1920" height="375" viewBox="0 0 1920 375" fill="none" xmlns="http://www.w3.org/2000/svg">
<path d="M1920.05 125.175L0.0472336 125.944L0.114611 308.697L148.12 322.288L276.139 374.89L430.621 326.075L975.605 283.233L1305.12 322.382L1495.11 291.104L1722.12 325.558L1920.11 307.928L1920.05 125.175Z" fill="#515A82"/>
<path d="M1920.03 66.8193L0.0257492 67.588L0.0956058 257.064L148.101 271.158L289.125 337.37L432.606 284.112L975.586 230.679L1302.1 280.844L1479.59 236.655L1711.1 281.978L1920.1 256.296L1920.03 66.8193Z" fill="#353D60"/>
<path d="M1920 -3L-7.62939e-06 -2.34669L0.0811095 184.648L148.087 198.565L275.61 251.826L425.587 198.185L975.57 158.661L1305.09 198.741L1495.07 166.751L1722.09 202.02L1920.08 183.994L1920 -3Z" fill="#1D243D"/>
</svg>
