<svg width="1920" height="1171" viewBox="0 0 1920 1171" fill="none" xmlns="http://www.w3.org/2000/svg">
<path d="M845 204.108L898 210.928L949 221.645H1039.5L1247.4 251.557L1471.93 255.931L1553.64 193.635L1638.38 120.902L1779.94 65.5084L1920 0V795H1631.96H0V615.735L45 613.5L93 604.531L259.688 513.47L445.607 387.27L551.776 343.437L651.502 291.645L737 242.105L792 221.645L845 204.108Z" fill="#515A82"/>
<path d="M842 231.5L892.5 234L946.5 245L1045.5 251L1247.4 292.638L1471.93 296.839L1553.64 237L1638.38 167.134L1779.94 113.925L1920 51V795H1619.96H0V694.5L48 684L97.5 660L259.688 544.224L445.607 423L551.776 380.896L643.5 318.5L737.5 267.5L791 248L842 231.5Z" fill="#353D60"/>
<path d="M834.5 306L886 309.5L937.5 318L1040.95 338.075L1247.4 370.151L1471.93 374.014L1553.64 319L1638.38 254.769L1779.94 205.851L1920 148V1172H1619.96H0V785L109.5 738.5L259.688 601.448L445.607 490L551.776 451.291L639.502 387.485L735.5 341.5L783.5 321.5L834.5 306Z" fill="#1D243D"/>
</svg>
