<svg width="1920" height="5636" viewBox="0 0 1920 5636" fill="none" xmlns="http://www.w3.org/2000/svg">
<path d="M0 113H1920V583L1751.5 574L1083.5 374.5L754.5 491.5H306L119.5 435L0 583V113Z" fill="#515A82"/>
<path d="M0 40H1920V460L1751.5 451.957L1083.5 273.681L754.5 378.234H306L119.5 327.745L0 460V40Z" fill="#353D60"/>
<path d="M0 0H1920V381L1751.5 373.704L1083.5 211.982L754.5 306.827H306L119.5 261.026L0 381V0Z" fill="#1D243D"/>
<rect y="5241" width="1920" height="395" fill="#1D243D"/>
<path d="M-2121 -980H-1815.98V-932.449H-2121V-980ZM1332.98 5467.45H1638V5515H1332.98V5467.45Z" stroke="#CCD0CF" stroke-width="2"/>
</svg>
