<svg width="1920" height="1246" viewBox="0 0 1920 1246" fill="none" xmlns="http://www.w3.org/2000/svg">
<path d="M1920 399V604.5L1901.5 617L1882 628L1853.5 639L1778.5 654.5L1635.18 705.885L1544.53 759.404L1501.89 790.232L1491.39 798.124L1479.39 806.51L1473.38 809.962L1470.88 811.442L1469.38 812.429L1468.38 812.922H1467.38H1453.88L1373.11 804.845L1292.34 796.768L1130.79 780.614L967.252 758.199C967.252 758.199 919.936 754.702 887.731 749.467C871.822 746.881 863.019 747.085 847.221 744.089C838.719 742.476 828.716 743.283 828.716 743.283C828.716 743.283 819.714 745.702 816.713 747.314C813.403 749.093 804.71 752.555 804.71 752.555L345.59 946.063L6.40154e-05 1246L0 398L1920 399Z" fill="#515A82"/>
<path d="M1920 398V562.5L1906.5 573.5L1888.5 584L1847 603L1829 609.5L1802.5 616L1634.75 672.741L1544.12 722.013L1501.5 750.395L1491 757.661L1479 765.381L1473 768.56L1470.5 769.922L1469 770.831L1468 771.285H1467H1453.5L1130.5 741.54L967 722.756L888 713.086L869.25 708.043L850.5 701.5L830 699.5L817.5 701.5L799.5 709L339 887.085L0 1170V398H1920Z" fill="#353D60"/>
<path d="M1920 0L1920 520.5C1920 520.5 1908 531.789 1899.5 538C1891.15 544.103 1877.02 552 1877.02 552L1836.54 570L1777.37 593.712L1634.75 641.424L1544.12 685.079L1501.5 710.226L1491 716.664L1479 723.504L1473 726.32L1470.5 727.527L1469 728.332L1468 728.734H1467H1453.5L1129.5 712.238L969 695.339L888.5 679L849 669L828.5 667.5H815.5L801 671.5L339 831.334L0 1082L0.00012207 0H960H1920Z" fill="#1D243D"/>
</svg>
