<svg id="Слой_1" data-name="Слой 1" xmlns="http://www.w3.org/2000/svg" viewBox="0 0 35 35"><defs><style>.cls-1{fill:#f4f4f4;stroke:#fff;stroke-miterlimit:10;}</style></defs><path class="cls-1" d="M25,8A17,17,0,1,0,42,25,17,17,0,0,0,25,8Zm0,1A16,16,0,1,1,9,25,16,16,0,0,1,25,9Zm7,9.31a3.26,3.26,0,0,0-1.44.26c-1,.36-13.88,5.82-14.62,6.14s-1.37.63-1.37,1.1.19.52.74.71,2,.64,2.83.87a3.08,3.08,0,0,0,2.25-.29c.55-.34,6.88-4.58,7.34-5s.81.11.44.48-4.72,4.58-5.29,5.17a1.08,1.08,0,0,0,.27,1.74c.53.33,4.36,2.9,4.94,3.32a3,3,0,0,0,1.7.6c.54,0,.82-.71,1.08-1.53s1.78-10.52,2-12.41a1,1,0,0,0-.48-1.12A1,1,0,0,0,32,18.31Z" transform="translate(-7.5 -7.5)"/></svg>