<svg id="Слой_1" data-name="Слой 1" xmlns="http://www.w3.org/2000/svg" viewBox="0 0 46 46"><defs><style>.cls-1{fill:#fff;}</style></defs><path class="cls-1" d="M25,2A22.91,22.91,0,0,0,5,36.21L2,46.73A1,1,0,0,0,2.73,48a1,1,0,0,0,.51,0l11-2.72A23,23,0,1,0,25,2Zm0,2A21,21,0,1,1,14.76,43.33a1,1,0,0,0-.73-.09l-9.6,2.38L7,36.43a1,1,0,0,0-.1-.78A21,21,0,0,1,25,4Zm-8.36,9a3.2,3.2,0,0,0-2.31,1.05A7.8,7.8,0,0,0,12,19.59c0,3.37,2.33,6.27,2.61,6.64h0s.35.52.87,1.19a31,31,0,0,0,2.13,2.49,23.06,23.06,0,0,0,7.49,5.44,34,34,0,0,0,3.45,1.26,9.19,9.19,0,0,0,4.17.27,7,7,0,0,0,2.62-1.09,4.85,4.85,0,0,0,2.16-2.33A8.15,8.15,0,0,0,38,31.4a5.29,5.29,0,0,0,0-.79,1.41,1.41,0,0,0-.22-.79c-.47-.76-1-.78-1.55-1.05-.3-.15-1.17-.58-2-1s-1.63-.79-2.1-1a2.28,2.28,0,0,0-1.17-.2,2,2,0,0,0-1.32.87c-.28.42-1.42,1.76-1.77,2.15l-.11,0c-.43-.22-.95-.4-1.72-.81a13.89,13.89,0,0,1-2.81-1.94h0a16.38,16.38,0,0,1-3-3.73l.05,0h0c.35-.35.67-.77.94-1.08a4.73,4.73,0,0,0,.72-1.18,2.22,2.22,0,0,0-.05-1.92h0s-.11-.25-.25-.57-.31-.75-.5-1.2c-.37-.9-.79-1.91-1-2.5h0a2.61,2.61,0,0,0-1.2-1.43,1.88,1.88,0,0,0-1-.18h0C17.45,13,17.05,13,16.64,13Zm0,2c.39,0,.77,0,1.09,0s.3,0,.24,0,0,0,.21.4l1,2.49.5,1.21c.14.33.22.51.31.69h0c.09.17.08.06,0,.12a2.64,2.64,0,0,1-.46.77c-.32.38-.65.79-.83,1a2.12,2.12,0,0,0-.6.84,2,2,0,0,0,.19,1.57,18.31,18.31,0,0,0,3.48,4.28,15.84,15.84,0,0,0,3.19,2.21c.89.47,1.61.75,1.78.83a2.3,2.3,0,0,0,1.29.28A2,2,0,0,0,29.3,31h0a29.27,29.27,0,0,0,1.92-2.37l.19.07h0c.08,0,1,.46,1.91.87l2,1c.41.2.6.33.65.33a1.8,1.8,0,0,1,0,.33,7,7,0,0,1-.36,1.56,3.79,3.79,0,0,1-1.35,1.33,6.51,6.51,0,0,1-1.84.79,7.1,7.1,0,0,1-3.28-.2,33.23,33.23,0,0,1-3.27-1.19,21.38,21.38,0,0,1-6.82-5c-.84-.89-1.52-1.72-2-2.34s-.69-.95-.86-1.18h0C15.9,24.61,14,22,14,19.59a5.28,5.28,0,0,1,1.8-4.18A1.18,1.18,0,0,1,16.64,15Z" transform="translate(-2 -2)"/></svg>