<svg width="342" height="267" viewBox="0 0 342 267" fill="none" xmlns="http://www.w3.org/2000/svg">
<path d="M134.793 17.6848C137.859 14.723 140.175 11.0434 141.541 6.96295C142.544 3.88768 143.98 2.36389 145.958 2.36389C147.279 2.55332 148.485 3.23394 149.346 4.27555C150.213 8.8746 151.46 18.1281 153.086 31.9807L157.584 67.9974C157.584 70.2969 156.202 71.4328 153.465 71.4328C151.947 71.4328 150.755 70.1583 149.508 67.6095C143.236 51.3834 133.09 37.0204 119.996 25.8301C108.216 15.264 93.1202 9.36614 77.4493 9.20706C62.3275 9.20706 50.9183 13.8246 43.2219 23.0596C36.0094 31.2185 31.9197 41.7646 31.7044 52.7595C31.7044 65.5593 35.8778 75.3115 44.2517 82.0993C52.6256 88.887 69.8884 96.5336 95.9858 105.095C115.227 111.245 129.635 117.183 139.21 122.909C148.99 128.888 157.239 137.159 163.275 147.04C169.636 156.909 173.028 168.467 173.031 180.286C173.049 200.474 164.865 218.593 148.479 234.644C140.492 242.497 131.065 248.658 120.739 252.771C110.414 256.884 99.3949 258.868 88.3164 258.609C66.9616 258.609 45.4712 251.775 23.8454 238.107C19.8955 241.332 17.0488 245.756 15.7153 250.74C14.7126 254.813 13.0053 256.863 10.8373 256.863C8.66932 256.863 7.42272 254.259 6.55551 249.023C5.68831 243.786 3.71001 218.879 1 174.551C1.4607 173.027 2.81571 172.252 4.92951 172.252C7.04332 172.252 8.28992 173.665 9.42812 176.463C28.6692 226 55.5344 250.759 90.0237 250.74C107.151 250.74 120.556 245.467 130.24 234.921C139.572 225.255 144.784 212.208 144.739 198.627C144.789 189.332 142.077 180.241 136.961 172.557C131.699 164.577 124.634 158.01 116.365 153.412C103.337 146.708 89.7286 141.255 75.7149 137.122C51.9752 129.309 35.8236 121.921 27.26 114.958C19.2294 108.713 12.734 100.641 8.28992 91.3805C4.50796 83.4699 2.47262 74.8063 2.3279 66.0026C2.3279 48.9916 9.87979 33.9108 24.9836 20.7601C40.0873 7.6094 58.5696 1.1541 80.4303 1.39421C89.2326 1.52194 97.973 2.92104 106.392 5.54998C116.258 8.53953 125.78 12.608 134.793 17.6848Z" fill="#CCD0CF" stroke="#CCD0CF" stroke-miterlimit="10"/>
<path d="M207.909 136.318C214.413 150.633 220.43 163.303 225.958 174.33C232.733 187.517 237.972 198.452 241.676 207.133C245.522 216.008 249.903 224.632 254.793 232.954C268.054 210.476 283.41 178.264 300.863 136.318H339.074C340.402 136.512 341.079 137.122 341.079 138.119C341.079 139.116 340.32 139.698 338.776 139.837C332.001 140.446 327.502 141.832 325.226 143.993C322.601 147.073 321.106 150.991 320.998 155.075C320.456 160.283 319.941 169.897 319.399 183.916C318.857 197.934 318.64 209.681 318.64 219.046C318.64 237.054 318.64 247.527 319.02 250.519C319.159 253.247 320.336 255.813 322.299 257.667C325.629 259.965 329.506 261.296 333.518 261.518C335.117 261.767 335.957 262.377 335.957 263.374C335.957 264.371 334.955 264.842 332.976 264.842H285.849C283.681 264.842 282.597 264.344 282.597 263.291C282.597 262.238 283.356 261.822 284.819 261.629C288.606 261.425 292.304 260.385 295.659 258.581C297.698 256.747 299.08 254.271 299.589 251.544C300.456 248.192 300.89 239.769 300.89 226.36L302.705 179.261L303.654 155.989C303.654 154.243 303.41 153.218 302.895 153.218C302.473 153.291 302.075 153.471 301.739 153.742C301.402 154.013 301.138 154.367 300.971 154.77L282.001 193.169C269.806 217.697 262.344 233.379 259.616 240.212L253.654 255.035C252.717 257.592 251.594 260.074 250.294 262.46C250.133 262.676 249.929 262.854 249.695 262.983C249.462 263.112 249.204 263.189 248.939 263.208C248.153 263.208 247.53 262.349 247.015 260.659C245.822 256.577 239.897 243.648 229.237 221.872C223.655 209.626 216.979 195.644 209.21 179.926C201.442 164.208 197.241 155.952 196.609 155.158C195.958 154.493 195.47 154.133 195.145 154.133C194.82 154.133 194.197 154.964 194.197 156.598L193.14 216.109L192.842 235.724C192.842 246.141 194.251 252.929 197.015 256.143C198.537 257.795 200.398 259.082 202.464 259.911C204.531 260.74 206.752 261.09 208.966 260.936C212.3 260.936 213.98 261.656 213.98 263.097C213.98 264.538 213.167 264.676 211.568 264.676H189.888C183.98 264.676 176.338 265.009 167.151 265.673C166.365 265.147 165.986 264.621 165.986 264.094C165.986 262.792 167.097 262.1 169.346 262.044C172.031 262.168 174.708 261.646 177.16 260.52C179.612 259.394 181.772 257.696 183.465 255.561C186.482 251.442 187.982 242.207 187.964 227.856L187.639 210.568L188.994 166.766C188.994 156.571 187.503 149.561 184.576 145.793C182.953 143.861 180.974 142.274 178.752 141.124C176.529 139.974 174.106 139.282 171.622 139.089C169.183 138.756 167.964 138.091 167.964 137.066C167.964 136.041 168.858 135.349 170.674 135.349H174.143L207.909 136.318Z" fill="#CCD0CF" stroke="#CCD0CF" stroke-miterlimit="10"/>
<path d="M322.461 81.0465L305.334 119.972" stroke="#CCD0CF" stroke-miterlimit="10"/>
<path d="M283.599 121.413L250.754 127.453C247.352 128.108 243.845 127.904 240.539 126.856C237.232 125.808 234.227 123.949 231.784 121.441L207.177 96.2843C204.487 93.5452 202.565 90.1184 201.612 86.3612C200.659 82.6041 200.709 78.6542 201.757 74.9237L230.538 109.527C233.477 113.043 237.314 115.654 241.622 117.068C245.929 118.482 250.536 118.643 254.928 117.534L299.995 105.981C298.92 109.849 296.819 113.337 293.926 116.06C291.032 118.784 287.458 120.636 283.599 121.413Z" fill="#CCD0CF" stroke="#CCD0CF" stroke-miterlimit="10"/>
<path d="M322.731 93.9017L251.865 110.83C248.997 111.527 245.996 111.397 243.197 110.453C240.397 109.509 237.91 107.788 236.011 105.482L190.727 50.931C187.991 47.6108 186.655 43.3171 187.01 38.9911C187.366 34.665 189.385 30.6596 192.624 27.8527C194.555 26.1944 196.838 25.0183 199.291 24.4172L270.13 7.37856C273.002 6.69121 276.004 6.82664 278.806 7.76997C281.607 8.7133 284.1 10.428 286.011 12.7257L331.241 67.3879C333.011 69.5231 334.216 72.0865 334.741 74.8333C335.266 77.5801 335.093 80.4186 334.24 83.0779C333.386 85.7371 331.88 88.1283 329.865 90.0232C327.851 91.9181 325.395 93.2534 322.731 93.9017Z" fill="#CCD0CF" stroke="#CCD0CF" stroke-miterlimit="10"/>
<path d="M307.664 122.798C311.107 122.798 313.897 119.945 313.897 116.426C313.897 112.907 311.107 110.054 307.664 110.054C304.222 110.054 301.431 112.907 301.431 116.426C301.431 119.945 304.222 122.798 307.664 122.798Z" fill="#CCD0CF" stroke="#CCD0CF" stroke-miterlimit="10"/>
</svg>
