<svg width="210" height="164" viewBox="0 0 210 164" fill="none" xmlns="http://www.w3.org/2000/svg">
<path d="M82.8308 10.9677C84.7062 9.15615 86.1227 6.90558 86.958 4.40991C87.5713 2.52901 88.4497 1.59703 89.6597 1.59703C90.4675 1.71288 91.2052 2.12917 91.7316 2.76624C92.262 5.57912 93.0244 11.2388 94.0189 19.7113L96.7704 41.7399C96.7704 43.1463 95.9251 43.8411 94.251 43.8411C93.3228 43.8411 92.5935 43.0616 91.831 41.5027C87.9946 31.5784 81.7893 22.7937 73.7808 15.9495C66.5756 9.48703 57.3427 5.87976 47.7581 5.78246C38.5092 5.78246 31.5312 8.60664 26.8239 14.255C22.4125 19.2452 19.9111 25.6954 19.7795 32.4201C19.7795 40.2487 22.332 46.2134 27.4537 50.3649C32.5754 54.5165 43.1337 59.1933 59.0954 64.4294C70.8636 68.1912 79.676 71.8231 85.5325 75.325C91.5142 78.9818 96.5593 84.0407 100.251 90.0842C104.142 96.1202 106.216 103.19 106.218 110.418C106.229 122.766 101.224 133.848 91.2012 143.665C86.3165 148.468 80.5505 152.236 74.2353 154.752C67.9201 157.267 61.1805 158.481 54.4047 158.322C41.3436 158.322 28.1996 154.142 14.9727 145.783C12.5569 147.755 10.8158 150.461 10.0002 153.51C9.38695 156.001 8.34273 157.254 7.01673 157.254C5.69073 157.254 4.92828 155.662 4.39788 152.459C3.86748 149.256 2.6575 134.023 1 106.911C1.28178 105.979 2.11053 105.504 3.40338 105.504C4.69623 105.504 5.45868 106.368 6.15483 108.08C17.9231 138.378 34.3544 153.521 55.4489 153.51C65.9243 153.51 74.1234 150.284 80.0462 143.834C85.7534 137.922 88.9413 129.942 88.9138 121.636C88.9447 115.951 87.2858 110.39 84.1568 105.691C80.9384 100.81 76.6175 96.7939 71.5598 93.9816C63.5916 89.8813 55.2684 86.5458 46.6973 84.0179C32.1776 79.2393 22.2989 74.7207 17.0612 70.4618C12.1495 66.6428 8.17678 61.7052 5.45868 56.0415C3.14555 51.2032 1.90069 45.9044 1.81218 40.5199C1.81218 30.1156 6.43108 20.8918 15.6689 12.8486C24.9067 4.80529 36.2108 0.857093 49.5813 1.00395C54.965 1.08207 60.3108 1.93779 65.4602 3.54571C71.4945 5.37418 77.3184 7.86255 82.8308 10.9677Z" fill="#C6CAEB" stroke="#C6CAEB" stroke-miterlimit="10"/>
<path d="M127.551 83.5267C131.529 92.2816 135.208 100.031 138.59 106.775C142.733 114.841 145.938 121.529 148.203 126.838C150.555 132.267 153.235 137.541 156.225 142.631C164.336 128.883 173.729 109.182 184.403 83.5267H207.774C208.586 83.6453 209 84.0181 209 84.6281C209 85.2381 208.536 85.594 207.591 85.6787C203.448 86.0515 200.696 86.8987 199.304 88.2205C197.698 90.1044 196.784 92.5008 196.718 94.9985C196.387 98.1842 196.072 104.064 195.74 112.638C195.409 121.213 195.276 128.397 195.276 134.125C195.276 145.139 195.276 151.544 195.508 153.374C195.593 155.043 196.313 156.612 197.514 157.746C199.55 159.152 201.922 159.966 204.376 160.101C205.354 160.254 205.868 160.627 205.868 161.237C205.868 161.847 205.254 162.135 204.044 162.135H175.22C173.894 162.135 173.231 161.83 173.231 161.186C173.231 160.542 173.695 160.288 174.59 160.169C176.906 160.045 179.168 159.409 181.22 158.305C182.467 157.183 183.313 155.669 183.624 154.001C184.154 151.951 184.419 146.8 184.419 138.598L185.53 109.792L186.11 95.5577C186.11 94.4901 185.961 93.8632 185.646 93.8632C185.388 93.9074 185.144 94.0176 184.939 94.1835C184.733 94.3493 184.571 94.5655 184.469 94.8121L172.867 118.298C165.408 133.3 160.844 142.891 159.176 147.071L155.529 156.136C154.956 157.7 154.269 159.218 153.474 160.678C153.375 160.81 153.251 160.919 153.108 160.998C152.965 161.077 152.807 161.123 152.645 161.135C152.164 161.135 151.783 160.61 151.468 159.576C150.739 157.08 147.115 149.172 140.595 135.853C137.181 128.363 133.098 119.812 128.346 110.198C123.595 100.585 121.026 95.5351 120.639 95.0493C120.241 94.6426 119.943 94.4224 119.744 94.4224C119.545 94.4224 119.164 94.9307 119.164 95.9305L118.517 132.328L118.335 144.326C118.335 150.697 119.197 154.848 120.887 156.814C121.818 157.825 122.956 158.612 124.22 159.119C125.484 159.626 126.842 159.84 128.197 159.746C130.236 159.746 131.263 160.186 131.263 161.067C131.263 161.948 130.766 162.033 129.788 162.033H116.528C112.915 162.033 108.241 162.237 102.622 162.643C102.141 162.321 101.909 161.999 101.909 161.677C101.909 160.881 102.589 160.457 103.964 160.423C105.607 160.499 107.244 160.18 108.744 159.491C110.243 158.803 111.564 157.764 112.6 156.458C114.445 153.939 115.362 148.291 115.351 139.513L115.152 128.939L115.981 102.149C115.981 95.9135 115.07 91.6264 113.28 89.3219C112.287 88.14 111.076 87.1696 109.717 86.4659C108.358 85.7623 106.876 85.3394 105.357 85.2212C103.865 85.0178 103.119 84.6112 103.119 83.9842C103.119 83.3572 103.666 82.9336 104.777 82.9336H106.898L127.551 83.5267Z" fill="#C6CAEB" stroke="#C6CAEB" stroke-miterlimit="10"/>
<path d="M197.612 49.7212L187.137 73.529" stroke="#C6CAEB" stroke-miterlimit="10"/>
<path d="M173.844 74.4104L153.755 78.1044C151.675 78.5056 149.53 78.3802 147.507 77.7393C145.485 77.0984 143.647 75.9613 142.153 74.4273L127.103 59.0412C125.457 57.3659 124.282 55.27 123.699 52.972C123.116 50.6741 123.146 48.2583 123.788 45.9766L141.39 67.141C143.188 69.2913 145.535 70.8881 148.17 71.7529C150.804 72.6177 153.622 72.7164 156.308 72.0381L183.872 64.972C183.214 67.3375 181.93 69.471 180.16 71.1367C178.39 72.8024 176.204 73.9354 173.844 74.4104Z" fill="#C6CAEB" stroke="#C6CAEB" stroke-miterlimit="10"/>
<path d="M197.778 57.5834L154.435 67.9369C152.681 68.3637 150.845 68.284 149.133 67.7065C147.421 67.129 145.899 66.0765 144.738 64.6665L117.041 31.3016C115.368 29.2709 114.551 26.6448 114.768 23.9989C114.986 21.353 116.22 18.9032 118.202 17.1864C119.383 16.1722 120.779 15.4528 122.279 15.0852L165.606 4.66397C167.363 4.24357 169.199 4.3264 170.912 4.90337C172.626 5.48033 174.151 6.52909 175.319 7.93437L202.983 41.367C204.065 42.673 204.802 44.2408 205.123 45.9208C205.444 47.6008 205.339 49.3369 204.817 50.9633C204.295 52.5898 203.374 54.0523 202.142 55.2113C200.909 56.3702 199.407 57.187 197.778 57.5834Z" fill="#C6CAEB" stroke="#C6CAEB" stroke-miterlimit="10"/>
<path d="M188.563 75.2571C190.668 75.2571 192.375 73.5122 192.375 71.3598C192.375 69.2073 190.668 67.4624 188.563 67.4624C186.457 67.4624 184.751 69.2073 184.751 71.3598C184.751 73.5122 186.457 75.2571 188.563 75.2571Z" fill="#C6CAEB" stroke="#C6CAEB" stroke-miterlimit="10"/>
</svg>
