<svg xmlns="http://www.w3.org/2000/svg" viewBox="0 0 126.53 96.43"><defs><style>.cls-1{fill:#fff;stroke:#fff;stroke-miterlimit:10;}</style></defs><g id="Слой_2" data-name="Слой 2"><g id="Слой_1-2" data-name="Слой 1"><path class="cls-1" d="M49.89,6.38a9.73,9.73,0,0,0,2.49-3.87C52.75,1.4,53.28.85,54,.85a1.9,1.9,0,0,1,1.24.69q.49,2.49,1.39,10l1.66,13c0,.83-.51,1.24-1.52,1.24-.56,0-1-.46-1.46-1.38A37.69,37.69,0,0,0,44.42,9.35,24.12,24.12,0,0,0,28.72,3.4q-8.37,0-12.62,5a16.43,16.43,0,0,0-4.25,10.72c0,4.62,1.54,8.14,4.63,10.59s9.45,5.21,19.09,8.3q10.65,3.31,15.94,6.43A26.48,26.48,0,0,1,60.4,53.2a21.88,21.88,0,0,1,3.6,12q0,10.92-9.06,19.57a31,31,0,0,1-22.2,8.65q-11.83,0-23.8-7.4a8.77,8.77,0,0,0-3,4.56c-.37,1.47-1,2.21-1.8,2.21S2.83,91.89,2.51,90s-1-10.84-2-26.84c.18-.55.66-.83,1.45-.83s1.24.51,1.66,1.52Q14.27,90.63,33.36,90.62q9.47,0,14.83-5.71a18.55,18.55,0,0,0,5.36-13.1,16.53,16.53,0,0,0-2.87-9.41,21.55,21.55,0,0,0-7.6-6.91,86.86,86.86,0,0,0-15-5.88q-13.14-4.23-17.88-8a23.79,23.79,0,0,1-7-8.51A21.67,21.67,0,0,1,1.06,24q0-9.21,8.33-16.33T29.83.5A34.36,34.36,0,0,1,39.41,2,53.09,53.09,0,0,1,49.89,6.38Z"/><path class="cls-1" d="M76.87,49.2Q80.44,57,83.53,62.92q3.72,7.13,5.8,11.84a81.88,81.88,0,0,0,4.84,9.32q7.33-12.17,17-34.88l14.09,0c.5.07.75.29.75.65s-.29.57-.85.62q-3.77.32-5,1.5a6.29,6.29,0,0,0-1.56,4q-.3,2.8-.59,10.41t-.28,12.68c0,6.5.05,10.28.14,11.36A3.75,3.75,0,0,0,119.09,93a8.17,8.17,0,0,0,4.14,1.39c.59.09.89.31.89.67s-.37.53-1.1.53l-13.78,0h-3.61c-.81,0-1.21-.18-1.21-.56s.27-.53.82-.6a9.64,9.64,0,0,0,4-1.1,4.48,4.48,0,0,0,1.45-2.54c.32-1.21.48-4.25.48-9.09l.67-17,.35-8.4c0-.63-.09-1-.28-1s-.52.18-.71.56l-7,13.86Q97.4,83,95.87,86.74l-2.2,5.35a19.29,19.29,0,0,1-1.24,2.68.67.67,0,0,1-.5.23c-.28,0-.52-.31-.71-.92q-.63-2.2-6.55-14Q81.58,73.48,77.28,65t-4.67-8.88c-.23-.24-.41-.37-.53-.37s-.35.3-.35.89l-.39,21.46-.11,7.08c0,3.76.52,6.21,1.54,7.37a5.58,5.58,0,0,0,4.41,1.73c1.23,0,1.84.26,1.84.78s-.29.57-.88.57l-.74,0-2.31,0-5,0q-3.25,0-8.4.36-.42-.28-.42-.57c0-.47.41-.72,1.24-.74a6.33,6.33,0,0,0,5.21-2.34c1.1-1.49,1.66-4.82,1.66-10L69.32,76l.5-15.81c0-3.68-.55-6.21-1.63-7.57a7,7,0,0,0-4.79-2.42c-.89-.12-1.34-.36-1.34-.73s.33-.62,1-.62c.35,0,.78,0,1.28,0Z"/><line class="cls-1" x1="119.14" y1="29.25" x2="112.82" y2="43.3"/><path class="cls-1" d="M104.78,43.82,92.67,46a7.86,7.86,0,0,1-7-2.17l-9.08-9.08a7.85,7.85,0,0,1-2-7.71l2.55-8.9L113.4,29.6l-2.47,8.65A7.86,7.86,0,0,1,104.78,43.82Z"/><path class="cls-1" d="M119.22,33.89,93.09,40a5.91,5.91,0,0,1-5.86-1.93L70.53,18.38a5.91,5.91,0,0,1,3.16-9.57L99.82,2.66a5.93,5.93,0,0,1,5.87,1.93l16.69,19.73A5.91,5.91,0,0,1,119.22,33.89Z"/><circle class="cls-1" cx="113.68" cy="42.02" r="2.3"/></g></g></svg>