<svg width="229" height="178" viewBox="0 0 229 178" fill="none" xmlns="http://www.w3.org/2000/svg">
<path d="M90.2984 11.8773C92.3449 9.90045 93.8906 7.4445 94.8022 4.72108C95.4714 2.66854 96.4301 1.65151 97.7505 1.65151C98.632 1.77794 99.437 2.23221 100.011 2.92742C100.59 5.99699 101.422 12.1731 102.507 21.4188L105.51 45.4577C105.51 46.9925 104.588 47.7506 102.761 47.7506C101.748 47.7506 100.952 46.9 100.12 45.1988C95.9333 34.3689 89.1618 24.7826 80.4225 17.3137C72.5598 10.2615 62.4844 6.32507 52.0251 6.21889C41.9322 6.21889 34.3173 9.30079 29.1804 15.4646C24.3665 20.9101 21.6369 27.949 21.4932 35.2874C21.4932 43.8304 24.2787 50.3394 29.8678 54.8698C35.4568 59.4002 46.9786 64.5038 64.397 70.2177C77.2391 74.3228 86.8557 78.2861 93.2466 82.1077C99.7742 86.0981 105.28 91.6187 109.308 98.2137C113.554 104.8 115.818 112.515 115.82 120.403C115.832 133.877 110.37 145.971 99.4326 156.684C94.1022 161.925 87.81 166.037 80.9185 168.782C74.027 171.527 66.6724 172.852 59.2782 172.679C45.0252 172.679 30.6817 168.117 16.2478 158.995C13.6115 161.148 11.7115 164.1 10.8216 167.427C10.1523 170.145 9.0128 171.514 7.56579 171.514C6.11878 171.514 5.28676 169.775 4.70795 166.281C4.12915 162.786 2.80876 146.162 1 116.576C1.30749 115.559 2.21187 115.041 3.6227 115.041C5.03353 115.041 5.86556 115.984 6.62524 117.852C19.4674 150.914 37.3982 167.439 60.4177 167.427C71.849 167.427 80.7964 163.908 87.2597 156.868C93.4877 150.417 96.9664 141.709 96.9365 132.645C96.9702 126.441 95.16 120.373 91.7454 115.244C88.2332 109.918 83.5181 105.536 77.9988 102.467C69.3035 97.9922 60.2207 94.3523 50.8674 91.5938C35.0227 86.3792 24.2425 81.4481 18.5269 76.8006C13.167 72.6331 8.83171 67.2449 5.86556 61.0644C3.34134 55.7846 1.98288 50.0022 1.88629 44.1263C1.88629 32.7726 6.92669 22.7071 17.0075 13.9298C27.0883 5.15255 39.424 0.844051 54.0147 1.00431C59.8896 1.08956 65.7233 2.02337 71.3426 3.77802C77.9276 5.77336 84.2829 8.4888 90.2984 11.8773Z" fill="#1D243D" stroke="#1D243D" stroke-miterlimit="10"/>
<path d="M139.099 91.0574C143.44 100.611 147.455 109.068 151.145 116.428C155.667 125.229 159.164 132.527 161.636 138.321C164.203 144.246 167.127 150.001 170.39 155.555C179.241 140.553 189.491 119.053 201.139 91.0574H226.643C227.529 91.1868 227.981 91.5936 227.981 92.2593C227.981 92.925 227.475 93.3133 226.444 93.4058C221.922 93.8126 218.919 94.7372 217.4 96.1795C215.648 98.2353 214.65 100.85 214.578 103.576C214.217 107.052 213.873 113.469 213.511 122.826C213.149 132.182 213.005 140.023 213.005 146.273C213.005 158.292 213.005 165.282 213.258 167.279C213.351 169.1 214.136 170.812 215.447 172.05C217.669 173.584 220.257 174.472 222.935 174.62C224.002 174.786 224.563 175.193 224.563 175.859C224.563 176.525 223.893 176.839 222.573 176.839H191.119C189.672 176.839 188.948 176.506 188.948 175.804C188.948 175.101 189.455 174.823 190.431 174.694C192.958 174.558 195.427 173.864 197.666 172.66C199.027 171.436 199.95 169.783 200.289 167.963C200.868 165.726 201.157 160.104 201.157 151.154L202.369 119.719L203.002 104.186C203.002 103.021 202.84 102.337 202.496 102.337C202.214 102.385 201.948 102.506 201.724 102.687C201.5 102.868 201.323 103.104 201.212 103.373L188.55 129.002C180.411 145.373 175.431 155.839 173.61 160.4L169.631 170.293C169.005 172 168.255 173.656 167.388 175.249C167.28 175.393 167.144 175.512 166.988 175.598C166.832 175.684 166.66 175.735 166.484 175.748C165.959 175.748 165.543 175.175 165.199 174.047C164.403 171.322 160.448 162.693 153.334 148.159C149.608 139.986 145.152 130.654 139.967 120.163C134.782 109.672 131.978 104.162 131.556 103.632C131.122 103.188 130.797 102.947 130.58 102.947C130.363 102.947 129.947 103.502 129.947 104.593L129.241 144.313L129.042 157.405C129.042 164.357 129.983 168.888 131.828 171.033C132.843 172.136 134.085 172.995 135.465 173.548C136.844 174.101 138.326 174.335 139.804 174.232C142.029 174.232 143.151 174.713 143.151 175.674C143.151 176.636 142.608 176.728 141.541 176.728H127.071C123.128 176.728 118.027 176.95 111.895 177.394C111.371 177.042 111.117 176.691 111.117 176.34C111.117 175.471 111.859 175.008 113.36 174.971C115.153 175.054 116.939 174.706 118.576 173.954C120.212 173.203 121.654 172.069 122.784 170.644C124.798 167.895 125.799 161.732 125.786 152.153L125.569 140.614L126.474 111.379C126.474 104.575 125.479 99.8963 123.526 97.3814C122.442 96.0917 121.121 95.0327 119.638 94.2649C118.154 93.4971 116.538 93.0355 114.88 92.9065C113.252 92.6846 112.438 92.2408 112.438 91.5566C112.438 90.8724 113.035 90.4102 114.247 90.4102H116.562L139.099 91.0574Z" fill="#1D243D" stroke="#1D243D" stroke-miterlimit="10"/>
<path d="M215.555 54.1672L204.123 80.1477" stroke="#1D243D" stroke-miterlimit="10"/>
<path d="M189.617 81.1092L167.695 85.1403C165.424 85.578 163.084 85.4413 160.877 84.7418C158.67 84.0424 156.664 82.8016 155.034 81.1277L138.61 64.3374C136.815 62.5093 135.532 60.2221 134.896 57.7144C134.259 55.2067 134.293 52.5705 134.992 50.0806L154.201 73.1763C156.163 75.5229 158.725 77.2654 161.599 78.2091C164.474 79.1529 167.549 79.2606 170.48 78.5204L200.56 70.8094C199.842 73.3908 198.44 75.7191 196.509 77.5368C194.578 79.3544 192.193 80.5908 189.617 81.1092Z" fill="#1D243D" stroke="#1D243D" stroke-miterlimit="10"/>
<path d="M215.735 62.7471L168.436 74.0453C166.522 74.5111 164.519 74.4241 162.651 73.7939C160.782 73.1637 159.122 72.0152 157.855 70.4765L127.631 34.0669C125.805 31.8508 124.913 28.985 125.15 26.0977C125.387 23.2104 126.735 20.537 128.897 18.6635C130.186 17.5568 131.709 16.7718 133.346 16.3706L180.627 4.99837C182.544 4.53961 184.548 4.63 186.418 5.25961C188.288 5.88923 189.951 7.03369 191.227 8.56722L221.415 45.0508C222.596 46.4759 223.4 48.1868 223.751 50.0201C224.101 51.8534 223.986 53.748 223.416 55.5228C222.847 57.2977 221.841 58.8937 220.497 60.1584C219.152 61.4232 217.513 62.3144 215.735 62.7471Z" fill="#1D243D" stroke="#1D243D" stroke-miterlimit="10"/>
<path d="M205.679 82.0339C207.977 82.0339 209.839 80.1297 209.839 77.7809C209.839 75.432 207.977 73.5278 205.679 73.5278C203.381 73.5278 201.519 75.432 201.519 77.7809C201.519 80.1297 203.381 82.0339 205.679 82.0339Z" fill="#1D243D" stroke="#1D243D" stroke-miterlimit="10"/>
</svg>
