<svg xmlns="http://www.w3.org/2000/svg" viewBox="0 0 126.5 96.4"><defs><style>.cls-1{fill:#fff;}.cls-1,.cls-2{stroke:#fff;stroke-miterlimit:10;}.cls-2{fill:none;}</style></defs><g id="Слой_2" data-name="Слой 2"><g id="Слой_1-2" data-name="Слой 1"><path class="cls-1" d="M49.88,6.38a9.6,9.6,0,0,0,2.49-3.87C52.74,1.4,53.27.85,54,.85a2,2,0,0,1,1.25.69c.32,1.66.78,5,1.38,10l1.66,13c0,.83-.51,1.24-1.52,1.24-.56,0-1-.46-1.46-1.38A37.73,37.73,0,0,0,44.42,9.32a24.17,24.17,0,0,0-15.7-6q-8.37,0-12.63,5a16.48,16.48,0,0,0-4.25,10.72c0,4.62,1.54,8.14,4.63,10.59s9.46,5.21,19.09,8.3q10.65,3.33,15.95,6.43a26.51,26.51,0,0,1,8.88,8.71,21.82,21.82,0,0,1,3.6,12Q64,76,54.93,84.69a31,31,0,0,1-22.2,8.65q-11.82,0-23.79-7.4a8.81,8.81,0,0,0-3,4.56c-.37,1.47-1,2.21-1.8,2.21s-1.26-.94-1.58-2.83S1.51,79,.51,63c.17-.55.67-.83,1.45-.83s1.24.51,1.66,1.52Q14.27,90.51,33.36,90.5q9.48,0,14.84-5.71a18.56,18.56,0,0,0,5.35-13.1,16.56,16.56,0,0,0-2.87-9.41,21.63,21.63,0,0,0-7.6-6.91,87,87,0,0,0-15-5.88q-13.14-4.23-17.88-8a23.94,23.94,0,0,1-7-8.51A21.69,21.69,0,0,1,1,23.82Q1,14.61,9.36,7.49T29.82.5A34.47,34.47,0,0,1,39.4,2,52.82,52.82,0,0,1,49.88,6.38Z"/><path class="cls-1" d="M76.86,49.2q3.6,7.75,6.66,13.72,3.75,7.14,5.8,11.84a84.78,84.78,0,0,0,4.84,9.32q7.34-12.17,17-34.88h14.1c.49.07.74.29.74.65s-.28.57-.85.62c-2.5.22-4.16.72-5,1.5a6.35,6.35,0,0,0-1.56,4c-.2,1.88-.39,5.35-.59,10.41s-.28,9.3-.28,12.68c0,6.5,0,10.28.14,11.36A3.78,3.78,0,0,0,119.07,93a8.19,8.19,0,0,0,4.14,1.39c.59.09.9.31.9.67s-.37.53-1.1.53H105.62c-.8,0-1.2-.18-1.2-.56s.28-.53.82-.6a9.69,9.69,0,0,0,4-1.1,4.51,4.51,0,0,0,1.45-2.54c.32-1.21.48-4.25.48-9.09l.67-17,.35-8.4c0-.63-.09-1-.28-1a.94.94,0,0,0-.71.56l-7,13.86Q97.45,83,95.94,86.7l-2.2,5.35a19.75,19.75,0,0,1-1.24,2.68A.69.69,0,0,1,92,95c-.29,0-.52-.31-.71-.92q-.66-2.21-6.56-14-3.09-6.63-7.39-15.14T72.69,56c-.24-.24-.42-.37-.54-.37s-.35.3-.35.89L71.41,78l-.11,7.08c0,3.76.52,6.21,1.54,7.37a5.54,5.54,0,0,0,4.41,1.73c1.23,0,1.85.26,1.85.78s-.3.57-.89.57h-8c-2.18,0-5,.12-8.39.36-.29-.19-.43-.38-.43-.57,0-.47.41-.72,1.24-.74a6.34,6.34,0,0,0,5.21-2.34q1.67-2.23,1.66-10L69.38,76l.5-15.81c0-3.68-.55-6.21-1.63-7.57a7,7,0,0,0-4.78-2.42c-.9-.12-1.35-.36-1.35-.73s.33-.62,1-.62H64.4Z"/><line class="cls-2" x1="119.13" y1="29.25" x2="112.81" y2="43.3"/><path class="cls-1" d="M104.79,43.82,92.67,46a7.83,7.83,0,0,1-7-2.17l-9.08-9.08a7.83,7.83,0,0,1-2-7.71h0L85.21,39.53a9,9,0,0,0,9,2.89l16.63-4.17h0A7.87,7.87,0,0,1,104.79,43.82Z"/><path class="cls-1" d="M119.23,33.89,93.08,40a5.87,5.87,0,0,1-5.85-1.93L70.52,18.38a5.92,5.92,0,0,1,.7-8.33,6,6,0,0,1,2.46-1.24L99.82,2.66a5.92,5.92,0,0,1,5.86,1.93l16.69,19.73a5.91,5.91,0,0,1-3.14,9.57Z"/><circle class="cls-1" cx="113.67" cy="42.02" r="2.3"/></g></g></svg>